<mxfile host="app.diagrams.net" modified="2023-04-08T05:35:29.380Z" agent="Mozilla/5.0 (Windows NT 10.0; Win64; x64) AppleWebKit/537.36 (KHTML, like Gecko) Chrome/111.0.0.0 Safari/537.36 Edg/111.0.1661.62" etag="vDYHfjYUJccGEGN0l8RW" version="21.1.5" type="github">
  <diagram name="第 1 页" id="lBxiV7sQkLkeEPn-rJnv">
    <mxGraphModel dx="1434" dy="764" grid="1" gridSize="10" guides="1" tooltips="1" connect="1" arrows="1" fold="1" page="1" pageScale="1" pageWidth="827" pageHeight="1169" math="0" shadow="0">
      <root>
        <mxCell id="0" />
        <mxCell id="1" parent="0" />
        <mxCell id="V2f1PISX_LOcGrvE4tJj-3" value="" style="edgeStyle=orthogonalEdgeStyle;rounded=0;orthogonalLoop=1;jettySize=auto;html=1;" edge="1" parent="1" source="V2f1PISX_LOcGrvE4tJj-1" target="V2f1PISX_LOcGrvE4tJj-2">
          <mxGeometry relative="1" as="geometry" />
        </mxCell>
        <mxCell id="V2f1PISX_LOcGrvE4tJj-1" value="问题与假设" style="rounded=0;whiteSpace=wrap;html=1;" vertex="1" parent="1">
          <mxGeometry x="330" y="150" width="120" height="60" as="geometry" />
        </mxCell>
        <mxCell id="V2f1PISX_LOcGrvE4tJj-5" value="" style="edgeStyle=orthogonalEdgeStyle;rounded=0;orthogonalLoop=1;jettySize=auto;html=1;" edge="1" parent="1" source="V2f1PISX_LOcGrvE4tJj-2" target="V2f1PISX_LOcGrvE4tJj-4">
          <mxGeometry relative="1" as="geometry" />
        </mxCell>
        <mxCell id="V2f1PISX_LOcGrvE4tJj-2" value="尝试与对照" style="rounded=0;whiteSpace=wrap;html=1;" vertex="1" parent="1">
          <mxGeometry x="330" y="290" width="120" height="60" as="geometry" />
        </mxCell>
        <mxCell id="V2f1PISX_LOcGrvE4tJj-10" style="edgeStyle=orthogonalEdgeStyle;rounded=0;orthogonalLoop=1;jettySize=auto;html=1;entryX=1;entryY=1;entryDx=0;entryDy=0;" edge="1" parent="1" source="V2f1PISX_LOcGrvE4tJj-4" target="V2f1PISX_LOcGrvE4tJj-1">
          <mxGeometry relative="1" as="geometry">
            <Array as="points">
              <mxPoint x="520" y="460" />
              <mxPoint x="520" y="210" />
            </Array>
          </mxGeometry>
        </mxCell>
        <mxCell id="V2f1PISX_LOcGrvE4tJj-4" value="复盘和提炼" style="rounded=0;whiteSpace=wrap;html=1;" vertex="1" parent="1">
          <mxGeometry x="330" y="430" width="120" height="60" as="geometry" />
        </mxCell>
        <mxCell id="V2f1PISX_LOcGrvE4tJj-11" style="edgeStyle=orthogonalEdgeStyle;rounded=0;orthogonalLoop=1;jettySize=auto;html=1;entryX=0.25;entryY=0;entryDx=0;entryDy=0;" edge="1" parent="1" source="V2f1PISX_LOcGrvE4tJj-6" target="V2f1PISX_LOcGrvE4tJj-2">
          <mxGeometry relative="1" as="geometry" />
        </mxCell>
        <mxCell id="V2f1PISX_LOcGrvE4tJj-6" value="观察心态" style="rounded=0;whiteSpace=wrap;html=1;" vertex="1" parent="1">
          <mxGeometry x="90" y="230" width="120" height="60" as="geometry" />
        </mxCell>
        <mxCell id="V2f1PISX_LOcGrvE4tJj-12" style="edgeStyle=orthogonalEdgeStyle;rounded=0;orthogonalLoop=1;jettySize=auto;html=1;entryX=0.25;entryY=1;entryDx=0;entryDy=0;" edge="1" parent="1" source="V2f1PISX_LOcGrvE4tJj-7" target="V2f1PISX_LOcGrvE4tJj-2">
          <mxGeometry relative="1" as="geometry" />
        </mxCell>
        <mxCell id="V2f1PISX_LOcGrvE4tJj-7" value="经验心态" style="rounded=0;whiteSpace=wrap;html=1;" vertex="1" parent="1">
          <mxGeometry x="90" y="360" width="120" height="60" as="geometry" />
        </mxCell>
        <mxCell id="V2f1PISX_LOcGrvE4tJj-9" style="edgeStyle=orthogonalEdgeStyle;rounded=0;orthogonalLoop=1;jettySize=auto;html=1;entryX=1;entryY=0.5;entryDx=0;entryDy=0;" edge="1" parent="1" source="V2f1PISX_LOcGrvE4tJj-8" target="V2f1PISX_LOcGrvE4tJj-1">
          <mxGeometry relative="1" as="geometry" />
        </mxCell>
        <mxCell id="V2f1PISX_LOcGrvE4tJj-8" value="探索可能性" style="whiteSpace=wrap;html=1;" vertex="1" parent="1">
          <mxGeometry x="580" y="150" width="120" height="60" as="geometry" />
        </mxCell>
      </root>
    </mxGraphModel>
  </diagram>
</mxfile>
